<svg xmlns="http://www.w3.org/2000/svg" viewBox="0 0 64 64" role="img" aria-label="Cat icon" fill="none" stroke="#000000" stroke-width="3" stroke-linejoin="round" stroke-linecap="round">
  <title>Copilot CLI Internals</title>
  <path d="M14 26 L20 10 L28 24"/>
  <path d="M36 24 L44 10 L50 26"/>
  <path d="M14 26 C8 32 8 44 14 50 C20 55 26 56 32 56 C38 56 44 55 50 50 C56 44 56 32 50 26"/>
  <circle cx="25" cy="36" r="1.6" fill="#000000" stroke="none"/>
  <circle cx="39" cy="36" r="1.6" fill="#000000" stroke="none"/>
  <path d="M30 42 L34 42 L32 44.5 Z" fill="#000000" stroke="none"/>
  <path d="M14 40 L22 38" stroke-width="1.6"/>
  <path d="M14 44 L22 44" stroke-width="1.6"/>
  <path d="M50 40 L42 38" stroke-width="1.6"/>
  <path d="M50 44 L42 44" stroke-width="1.6"/>
</svg>
